<svg id="Layer_1" data-name="Layer 1" xmlns="http://www.w3.org/2000/svg" viewBox="0 0 61.8 61.8"><defs><style>.cls-1{fill:#677079;}.cls-2{fill:#f9dca4;}.cls-3{opacity:0.11;isolation:isolate;}.cls-4{fill:#ffe8be;}.cls-5{fill:#9b7451;}.cls-6{fill:#434955;}.cls-7{fill:#e6e6e6;}</style></defs><title>avatar</title><path class="cls-1" d="M52.59,52.91a30.9,30.9,0,0,1-43.67-.29,9.25,9.25,0,0,1,4-4.84A20,20,0,0,1,17,45.46c-2.2-7.55,3.78-11.26,6.07-12.33,0,3.49,3.26,1.17,7.31,1.22,3.34,0,9.94,3.39,9.94-1C44,34.4,48,41.39,45.26,45.69a17.19,17.19,0,0,1,3.18,2,10.2,10.2,0,0,1,4.15,5.22Z"/><path class="cls-2" d="M24,38.68,39,38.77v3.49a3.4,3.4,0,0,1-.06.46l-.05.34,0,.07c-1,5.08-5.2,7-7.81,8.41-2.75-1.5-6.64-4.2-6.94-9l0-.06V38.68Z"/><path class="cls-3" d="M39,38.62v4a6.92,6.92,0,0,1-.09,1.11,6.65,6.65,0,0,1-.38,1.32c-5.19,3.92-13.45.71-14.77-6Z"/><path class="cls-2" d="M18.1,25.24c-4.94,1.27-.74,7.29,2.37,7.26A19.89,19.89,0,0,1,18.1,25.24Z"/><path class="cls-2" d="M43.84,25.24c4.94,1.27.74,7.29-2.37,7.26A19.89,19.89,0,0,0,43.84,25.24Z"/><path class="cls-4" d="M30.73,11.36c20.53,0,12.53,32.45,0,32.45C18.9,43.81,10.21,11.36,30.73,11.36Z"/><path class="cls-5" d="M20.47,24.84c-.91,1.29-.93,4.12-1.23,5.33,0,.18-.32-.06-.37-.24-.31-1.12-.51-3.26-1.47-4.62-1.16-1.65-2-12.81,4-17.58a.17.17,0,0,1,.25.22,4.23,4.23,0,0,0-.4,2.82s4.48-6.43,12-6.57a.17.17,0,0,1,.1.3,5,5,0,0,0-1.91,2.64.17.17,0,0,0,.22.2c1.35-.48,7-2.2,11.88.46a.17.17,0,0,1,0,.31,13.45,13.45,0,0,0-3.33,1.54.17.17,0,0,0,.09.31,11.08,11.08,0,0,1,6.72,2.18.16.16,0,0,1-.06.28,3.42,3.42,0,0,0-1.93,4.2l0,.09c.42,3.54.7,6.15,0,8.05s-1.11,1.08-1.63,4.75a1.61,1.61,0,0,1-.77,1.22c0,.26.42-3.36-.44-4.9a20.1,20.1,0,0,0-.37-3.08c-1.69-5.95-5.58-7.9-10.32-7.89-4.1,0-10.58,1.57-10.67,7.6"/><path class="cls-6" d="M19.79,49.16S30.21,62.64,42.42,49c-1.48,4-7.84,7.27-11.48,7.26C24,56.2,20.15,50.62,19.79,49.16Z"/><path class="cls-7" d="M36.34,61.32c-.41.08-.83.14-1.24.2V52.58a.59.59,0,0,1,.62-.52.59.59,0,0,1,.62.52Zm-9.82.17-1.24-.2V52.58a.63.63,0,0,1,1.24,0Z"/></svg>